<mxfile host="app.diagrams.net" agent="Mozilla/5.0 (Windows NT 10.0; Win64; x64) AppleWebKit/537.36 (KHTML, like Gecko) Chrome/134.0.0.0 Safari/537.36 Edg/134.0.0.0" version="26.1.1">
  <diagram name="Página-1" id="-okOoftv4tvtMJmsXYtZ">
    <mxGraphModel dx="1042" dy="565" grid="1" gridSize="10" guides="1" tooltips="1" connect="1" arrows="1" fold="1" page="1" pageScale="1" pageWidth="827" pageHeight="1169" math="0" shadow="0">
      <root>
        <mxCell id="0" />
        <mxCell id="1" parent="0" />
        <mxCell id="ClU6zvMWvTSgsTU9IKBA-13" style="edgeStyle=orthogonalEdgeStyle;rounded=0;orthogonalLoop=1;jettySize=auto;html=1;" edge="1" parent="1" source="ClU6zvMWvTSgsTU9IKBA-1" target="ClU6zvMWvTSgsTU9IKBA-2">
          <mxGeometry relative="1" as="geometry" />
        </mxCell>
        <mxCell id="ClU6zvMWvTSgsTU9IKBA-1" value="INICIO" style="strokeWidth=2;html=1;shape=mxgraph.flowchart.start_1;whiteSpace=wrap;" vertex="1" parent="1">
          <mxGeometry x="350" y="10" width="100" height="60" as="geometry" />
        </mxCell>
        <mxCell id="ClU6zvMWvTSgsTU9IKBA-2" value="&lt;pre&gt;A crea un paquete con datos y checksum&lt;/pre&gt;" style="rounded=0;whiteSpace=wrap;html=1;" vertex="1" parent="1">
          <mxGeometry x="245" y="160" width="310" height="60" as="geometry" />
        </mxCell>
        <mxCell id="ClU6zvMWvTSgsTU9IKBA-3" value="&lt;pre&gt;Paquete enviado al medio no fiable (Capa 3)&lt;/pre&gt;" style="rounded=1;whiteSpace=wrap;html=1;absoluteArcSize=1;arcSize=14;strokeWidth=2;" vertex="1" parent="1">
          <mxGeometry x="254" y="330" width="320" height="100" as="geometry" />
        </mxCell>
        <mxCell id="ClU6zvMWvTSgsTU9IKBA-4" value="&lt;pre&gt;¿Paquete recibido en BARTOLO?&lt;/pre&gt;" style="strokeWidth=2;html=1;shape=mxgraph.flowchart.decision;whiteSpace=wrap;" vertex="1" parent="1">
          <mxGeometry x="301.5" y="585" width="225" height="175" as="geometry" />
        </mxCell>
        <mxCell id="ClU6zvMWvTSgsTU9IKBA-5" style="edgeStyle=orthogonalEdgeStyle;rounded=0;orthogonalLoop=1;jettySize=auto;html=1;exitX=0;exitY=0.5;exitDx=0;exitDy=0;exitPerimeter=0;entryX=0.5;entryY=0;entryDx=0;entryDy=0;" edge="1" parent="1" source="ClU6zvMWvTSgsTU9IKBA-4" target="ClU6zvMWvTSgsTU9IKBA-24">
          <mxGeometry relative="1" as="geometry">
            <mxPoint x="240" y="970" as="targetPoint" />
            <mxPoint x="410" y="760" as="sourcePoint" />
            <Array as="points">
              <mxPoint x="241" y="673" />
            </Array>
          </mxGeometry>
        </mxCell>
        <mxCell id="ClU6zvMWvTSgsTU9IKBA-7" value="" style="endArrow=classic;html=1;rounded=0;entryX=0.5;entryY=0;entryDx=0;entryDy=0;entryPerimeter=0;exitX=1;exitY=0.5;exitDx=0;exitDy=0;exitPerimeter=0;" edge="1" parent="1" source="ClU6zvMWvTSgsTU9IKBA-4" target="ClU6zvMWvTSgsTU9IKBA-8">
          <mxGeometry width="50" height="50" relative="1" as="geometry">
            <mxPoint x="480" y="780" as="sourcePoint" />
            <mxPoint x="414" y="910" as="targetPoint" />
            <Array as="points">
              <mxPoint x="565" y="673" />
            </Array>
          </mxGeometry>
        </mxCell>
        <mxCell id="ClU6zvMWvTSgsTU9IKBA-8" value="&lt;pre&gt;¿Checksum válido?&lt;/pre&gt;" style="strokeWidth=2;html=1;shape=mxgraph.flowchart.decision;whiteSpace=wrap;" vertex="1" parent="1">
          <mxGeometry x="500" y="782.5" width="130" height="110" as="geometry" />
        </mxCell>
        <mxCell id="ClU6zvMWvTSgsTU9IKBA-9" style="edgeStyle=orthogonalEdgeStyle;rounded=0;orthogonalLoop=1;jettySize=auto;html=1;entryX=0.5;entryY=0;entryDx=0;entryDy=0;entryPerimeter=0;" edge="1" parent="1" source="ClU6zvMWvTSgsTU9IKBA-3" target="ClU6zvMWvTSgsTU9IKBA-4">
          <mxGeometry relative="1" as="geometry" />
        </mxCell>
        <mxCell id="ClU6zvMWvTSgsTU9IKBA-15" style="edgeStyle=orthogonalEdgeStyle;rounded=0;orthogonalLoop=1;jettySize=auto;html=1;entryX=0.455;entryY=0.04;entryDx=0;entryDy=0;entryPerimeter=0;" edge="1" parent="1" source="ClU6zvMWvTSgsTU9IKBA-2" target="ClU6zvMWvTSgsTU9IKBA-3">
          <mxGeometry relative="1" as="geometry" />
        </mxCell>
        <mxCell id="ClU6zvMWvTSgsTU9IKBA-16" value="&lt;pre&gt;Enviar ACK&lt;/pre&gt;" style="rounded=0;whiteSpace=wrap;html=1;" vertex="1" parent="1">
          <mxGeometry x="630" y="990" width="120" height="60" as="geometry" />
        </mxCell>
        <mxCell id="ClU6zvMWvTSgsTU9IKBA-17" value="&lt;pre&gt;Descartar paquete&lt;/pre&gt;" style="rounded=0;whiteSpace=wrap;html=1;" vertex="1" parent="1">
          <mxGeometry x="380" y="990" width="130" height="60" as="geometry" />
        </mxCell>
        <mxCell id="ClU6zvMWvTSgsTU9IKBA-18" style="edgeStyle=orthogonalEdgeStyle;rounded=0;orthogonalLoop=1;jettySize=auto;html=1;exitX=0.5;exitY=1;exitDx=0;exitDy=0;exitPerimeter=0;entryX=0.58;entryY=0.033;entryDx=0;entryDy=0;entryPerimeter=0;" edge="1" parent="1" source="ClU6zvMWvTSgsTU9IKBA-8" target="ClU6zvMWvTSgsTU9IKBA-16">
          <mxGeometry relative="1" as="geometry">
            <Array as="points">
              <mxPoint x="565" y="960" />
              <mxPoint x="700" y="960" />
            </Array>
          </mxGeometry>
        </mxCell>
        <mxCell id="ClU6zvMWvTSgsTU9IKBA-19" value="" style="endArrow=classic;html=1;rounded=0;exitX=0.5;exitY=1;exitDx=0;exitDy=0;exitPerimeter=0;entryX=0.5;entryY=0;entryDx=0;entryDy=0;" edge="1" parent="1" source="ClU6zvMWvTSgsTU9IKBA-8" target="ClU6zvMWvTSgsTU9IKBA-17">
          <mxGeometry width="50" height="50" relative="1" as="geometry">
            <mxPoint x="370" y="1150" as="sourcePoint" />
            <mxPoint x="420" y="1100" as="targetPoint" />
            <Array as="points">
              <mxPoint x="565" y="960" />
              <mxPoint x="445" y="960" />
            </Array>
          </mxGeometry>
        </mxCell>
        <mxCell id="ClU6zvMWvTSgsTU9IKBA-21" value="&lt;pre&gt;ALICIA recibe ACK&lt;/pre&gt;" style="text;html=1;align=center;verticalAlign=middle;whiteSpace=wrap;rounded=0;" vertex="1" parent="1">
          <mxGeometry x="720" y="1090" width="130" height="30" as="geometry" />
        </mxCell>
        <mxCell id="ClU6zvMWvTSgsTU9IKBA-22" value="&lt;pre&gt;Enviar siguiente paquete&lt;/pre&gt;" style="rounded=0;whiteSpace=wrap;html=1;" vertex="1" parent="1">
          <mxGeometry x="610" y="1160" width="190" height="60" as="geometry" />
        </mxCell>
        <mxCell id="ClU6zvMWvTSgsTU9IKBA-23" style="edgeStyle=orthogonalEdgeStyle;rounded=0;orthogonalLoop=1;jettySize=auto;html=1;entryX=0.421;entryY=0.02;entryDx=0;entryDy=0;entryPerimeter=0;" edge="1" parent="1" source="ClU6zvMWvTSgsTU9IKBA-16" target="ClU6zvMWvTSgsTU9IKBA-22">
          <mxGeometry relative="1" as="geometry" />
        </mxCell>
        <mxCell id="ClU6zvMWvTSgsTU9IKBA-26" style="edgeStyle=orthogonalEdgeStyle;rounded=0;orthogonalLoop=1;jettySize=auto;html=1;entryX=0.5;entryY=0;entryDx=0;entryDy=0;" edge="1" parent="1" source="ClU6zvMWvTSgsTU9IKBA-24" target="ClU6zvMWvTSgsTU9IKBA-25">
          <mxGeometry relative="1" as="geometry" />
        </mxCell>
        <mxCell id="ClU6zvMWvTSgsTU9IKBA-24" value="&lt;div style=&quot;line-height: 30%;&quot;&gt;&lt;pre&gt;Paquete perdido, retransmisión &lt;/pre&gt;&lt;pre&gt;programada (Timer activado)&lt;/pre&gt;&lt;/div&gt;" style="rounded=0;whiteSpace=wrap;html=1;" vertex="1" parent="1">
          <mxGeometry x="132" y="800" width="218" height="75" as="geometry" />
        </mxCell>
        <mxCell id="ClU6zvMWvTSgsTU9IKBA-25" value="&lt;pre&gt;Retransmitir paquete desde ALICIA&lt;/pre&gt;" style="rounded=0;whiteSpace=wrap;html=1;" vertex="1" parent="1">
          <mxGeometry x="121" y="990" width="240" height="60" as="geometry" />
        </mxCell>
      </root>
    </mxGraphModel>
  </diagram>
</mxfile>
